# xmcd
#
# Track frame offsets: 
#        150
#        17193
#        40126
#        56429
#        73692
#        91725
#        109580
#        127865
#        146157
#        162337
#        180769
#        197699
#        216211
#        233846
#        249623
#        267003
#        290558
#        311718
#
# Disc length: 4405 seconds
#
# Revision: 0
# Processed by: cddbd v1.5.2PL0 Copyright (c) Steve Scherf et al.
# Submitted via: ExactAudioCopy v0.95b4
#
DISCID=fb113312
DTITLE=Various Artist - Don´s Black Vol 
DYEAR=1900
DGENRE=
TTITLE0=Jordan Hill - Too much heaven
TTITLE1=Flip da scrip - Whos´in da house
TTITLE2=Basis - Wenn ich nur noch einen Tag zu leben hätte
TTITLE3=Thomas D - Rückenwind
TTITLE4=Sens vs. Fanta 4 - Original
TTITLE5=Hausmarke - Mädchen nr. 1
TTITLE6=Altina - Nur für Dich
TTITLE7=Sabrina Setlur - Nur mir
TTITLE8=Sabrina Setlur - Frei sein
TTITLE9=Backstreet Boys - All I have to give
TTITLE10=4the cause - Stand by me
TTITLE11=Papa Bear - When the rain begins to fall
TTITLE12=Backstreet Boys - Quit playing games
TTITLE13=Wyclef Jean - Guantanamera
TTITLE14=Freundeskreis - Anna
TTITLE15=Hoodys - Judgement day
TTITLE16=Outkast - Atliens
TTITLE17=Arrested Development - People everyday
EXTD=
EXTT0=
EXTT1=
EXTT2=
EXTT3=
EXTT4=
EXTT5=
EXTT6=
EXTT7=
EXTT8=
EXTT9=
EXTT10=
EXTT11=
EXTT12=
EXTT13=
EXTT14=
EXTT15=
EXTT16=
EXTT17=
PLAYORDER=
